<svg width="189" height="52" viewBox="0 0 189 52" fill="none" xmlns="http://www.w3.org/2000/svg">
<g filter="url(#filter0_d_2_60)">
<path d="M0 10.7025C0 4.91281 4.88735 0.277191 10.6734 0.481344C22.0836 0.883935 43.4409 1.39286 78.5 1.39286C95.5339 1.39286 154.937 0.518566 178.882 0.155338C184.465 0.0706395 189 4.57367 189 10.1577V36.9311C189 42.2538 184.831 46.6116 179.509 46.7141C167.417 46.9471 143.819 47.0251 109 45.5C91.9071 44.7513 33.862 45.7636 10.1833 46.2229C4.57738 46.3317 0 41.8183 0 36.2114V10.7025Z" fill="white"/>
<path d="M0.5 10.7025C0.5 5.20114 5.14731 0.786674 10.6558 0.981033C22.073 1.38387 43.4363 1.89286 78.5 1.89286C95.5387 1.89286 154.947 1.01847 178.889 0.655281C184.191 0.574852 188.5 4.85039 188.5 10.1577V36.9311C188.5 41.9885 184.541 46.1171 179.499 46.2142C167.417 46.447 143.83 46.5251 109.022 45.0005C91.9087 44.2509 33.8416 45.2639 10.1736 45.723C4.84914 45.8263 0.5 41.54 0.5 36.2114V10.7025Z" stroke="#1C1C1D"/>
</g>
<path d="M65.912 18.8H71.432C72.68 18.8 73.7787 19.0293 74.728 19.488C75.688 19.936 76.4293 20.5813 76.952 21.424C77.4853 22.2667 77.752 23.2587 77.752 24.4C77.752 25.5413 77.4853 26.5333 76.952 27.376C76.4293 28.2187 75.688 28.8693 74.728 29.328C73.7787 29.776 72.68 30 71.432 30H65.912V18.8ZM71.272 27.056C72.0827 27.056 72.728 26.8267 73.208 26.368C73.6987 25.8987 73.944 25.2427 73.944 24.4C73.944 23.5573 73.6987 22.9067 73.208 22.448C72.728 21.9787 72.0827 21.744 71.272 21.744H69.688V27.056H71.272ZM84.0928 30.16C83.1221 30.16 82.2474 29.968 81.4688 29.584C80.7007 29.1893 80.0981 28.6507 79.6607 27.968C79.2234 27.2747 79.0047 26.4907 79.0047 25.616C79.0047 24.7413 79.2234 23.9627 79.6607 23.28C80.0981 22.5867 80.7007 22.048 81.4688 21.664C82.2474 21.28 83.1221 21.088 84.0928 21.088C85.0741 21.088 85.9488 21.28 86.7168 21.664C87.4954 22.048 88.0981 22.5867 88.5248 23.28C88.9621 23.9627 89.1807 24.7413 89.1807 25.616C89.1807 26.4907 88.9621 27.2747 88.5248 27.968C88.0981 28.6507 87.4954 29.1893 86.7168 29.584C85.9488 29.968 85.0741 30.16 84.0928 30.16ZM84.0928 27.344C84.5088 27.344 84.8501 27.1947 85.1168 26.896C85.3834 26.5867 85.5168 26.16 85.5168 25.616C85.5168 25.072 85.3834 24.6507 85.1168 24.352C84.8501 24.0533 84.5088 23.904 84.0928 23.904C83.6768 23.904 83.3354 24.0533 83.0687 24.352C82.8021 24.6507 82.6687 25.072 82.6687 25.616C82.6687 26.16 82.8021 26.5867 83.0687 26.896C83.3354 27.1947 83.6768 27.344 84.0928 27.344ZM105.456 21.248L102.416 30H98.8961L97.5681 25.952L96.1921 30H92.6721L89.6321 21.248H93.0561L94.5601 25.872L96.1281 21.248H99.2001L100.72 25.92L102.288 21.248H105.456ZM112.683 21.088C113.76 21.088 114.624 21.4133 115.275 22.064C115.936 22.7147 116.267 23.696 116.267 25.008V30H112.651V25.632C112.651 24.6293 112.294 24.128 111.579 24.128C111.174 24.128 110.843 24.272 110.587 24.56C110.342 24.8373 110.219 25.28 110.219 25.888V30H106.603V21.248H110.043V22.112C110.384 21.7707 110.779 21.5147 111.227 21.344C111.675 21.1733 112.16 21.088 112.683 21.088ZM118.287 18.128H121.903V30H118.287V18.128ZM128.58 30.16C127.61 30.16 126.735 29.968 125.956 29.584C125.188 29.1893 124.586 28.6507 124.148 27.968C123.711 27.2747 123.492 26.4907 123.492 25.616C123.492 24.7413 123.711 23.9627 124.148 23.28C124.586 22.5867 125.188 22.048 125.956 21.664C126.735 21.28 127.61 21.088 128.58 21.088C129.562 21.088 130.436 21.28 131.204 21.664C131.983 22.048 132.586 22.5867 133.012 23.28C133.45 23.9627 133.668 24.7413 133.668 25.616C133.668 26.4907 133.45 27.2747 133.012 27.968C132.586 28.6507 131.983 29.1893 131.204 29.584C130.436 29.968 129.562 30.16 128.58 30.16ZM128.58 27.344C128.996 27.344 129.338 27.1947 129.604 26.896C129.871 26.5867 130.004 26.16 130.004 25.616C130.004 25.072 129.871 24.6507 129.604 24.352C129.338 24.0533 128.996 23.904 128.58 23.904C128.164 23.904 127.823 24.0533 127.556 24.352C127.29 24.6507 127.156 25.072 127.156 25.616C127.156 26.16 127.29 26.5867 127.556 26.896C127.823 27.1947 128.164 27.344 128.58 27.344ZM138.951 21.088C140.487 21.088 141.661 21.4347 142.471 22.128C143.282 22.8107 143.687 23.8667 143.687 25.296V30H140.327V28.848C139.911 29.7227 139.085 30.16 137.847 30.16C137.154 30.16 136.562 30.0427 136.071 29.808C135.591 29.5627 135.223 29.2373 134.967 28.832C134.722 28.416 134.599 27.952 134.599 27.44C134.599 26.576 134.93 25.92 135.591 25.472C136.253 25.024 137.255 24.8 138.599 24.8H140.055C139.938 24.1173 139.389 23.776 138.407 23.776C138.013 23.776 137.613 23.84 137.207 23.968C136.802 24.0853 136.455 24.2507 136.167 24.464L135.015 22.08C135.517 21.7707 136.119 21.5307 136.823 21.36C137.538 21.1787 138.247 21.088 138.951 21.088ZM138.935 27.984C139.191 27.984 139.421 27.9147 139.623 27.776C139.826 27.6373 139.975 27.4293 140.071 27.152V26.544H139.175C138.439 26.544 138.071 26.7893 138.071 27.28C138.071 27.4827 138.146 27.6533 138.295 27.792C138.455 27.92 138.669 27.984 138.935 27.984ZM155.536 18.128V30H152.096V29.28C151.574 29.8667 150.774 30.16 149.696 30.16C148.928 30.16 148.219 29.9787 147.568 29.616C146.928 29.2427 146.416 28.7093 146.032 28.016C145.659 27.3227 145.472 26.5227 145.472 25.616C145.472 24.7093 145.659 23.9147 146.032 23.232C146.416 22.5387 146.928 22.0107 147.568 21.648C148.219 21.2747 148.928 21.088 149.696 21.088C150.667 21.088 151.408 21.3387 151.92 21.84V18.128H155.536ZM150.56 27.344C150.976 27.344 151.318 27.1947 151.584 26.896C151.851 26.5867 151.984 26.16 151.984 25.616C151.984 25.072 151.851 24.6507 151.584 24.352C151.318 24.0533 150.976 23.904 150.56 23.904C150.144 23.904 149.803 24.0533 149.536 24.352C149.27 24.6507 149.136 25.072 149.136 25.616C149.136 26.16 149.27 26.5867 149.536 26.896C149.803 27.1947 150.144 27.344 150.56 27.344Z" fill="#1C1C1D"/>
<path fill-rule="evenodd" clip-rule="evenodd" d="M50.873 11H36.127C33.3 11 31 13.3 31 16.127V30.873C31 33.7 33.3 36 36.127 36H50.873C53.7 36 56 33.7 56 30.873V16.127C56 13.3 53.7 11 50.873 11ZM38.9252 30.5043C38.6991 30.9255 38.2875 31.1612 37.8649 31.1613C37.6577 31.1613 37.4479 31.1047 37.2559 30.9855C36.6724 30.623 36.4718 29.8175 36.8087 29.1897L37.049 28.7419H39.871L38.9252 30.5043ZM36.2187 27.9355C35.5648 27.9355 35.0328 27.3989 35.0328 26.7394C35.0328 26.0799 35.5648 25.5434 36.2187 25.5434H38.5515L41.7513 19.9538L40.8841 18.439C40.5572 17.8678 40.7518 17.1349 41.3181 16.8051H41.3182C41.8845 16.4754 42.6112 16.6719 42.9381 17.2429L43.1207 17.5618L43.3032 17.243C43.6303 16.6718 44.357 16.4755 44.9232 16.8052C45.1975 16.9649 45.3937 17.2228 45.4757 17.5314C45.5577 17.84 45.5156 18.1624 45.3572 18.439L41.2902 25.5434H43.8556L45.225 27.9355H36.2187ZM50.699 27.9094H49.6685L50.5037 29.3138C50.8535 29.9017 50.6452 30.6563 50.0396 30.9958C49.8441 31.1053 49.6271 31.1613 49.4074 31.1613C49.2972 31.1613 49.1864 31.1473 49.077 31.1188C48.7497 31.0336 48.4762 30.8299 48.3068 30.545L43.9028 23.14L45.3674 20.6774L48.2039 25.4468H50.699C51.3984 25.4468 51.9673 25.9991 51.9673 26.6781C51.9673 27.357 51.3984 27.9094 50.699 27.9094Z" fill="#1C1C1D"/>
<defs>
<filter id="filter0_d_2_60" x="0" y="0.154175" width="189" height="50.6888" filterUnits="userSpaceOnUse" color-interpolation-filters="sRGB">
<feFlood flood-opacity="0" result="BackgroundImageFix"/>
<feColorMatrix in="SourceAlpha" type="matrix" values="0 0 0 0 0 0 0 0 0 0 0 0 0 0 0 0 0 0 127 0" result="hardAlpha"/>
<feOffset dy="4"/>
<feColorMatrix type="matrix" values="0 0 0 0 0.125 0 0 0 0 0.125 0 0 0 0 0.125 0 0 0 1 0"/>
<feBlend mode="normal" in2="BackgroundImageFix" result="effect1_dropShadow_2_60"/>
<feBlend mode="normal" in="SourceGraphic" in2="effect1_dropShadow_2_60" result="shape"/>
</filter>
</defs>
</svg>
