<svg width="476" height="53" viewBox="0 0 476 53" fill="none" xmlns="http://www.w3.org/2000/svg">
<g filter="url(#filter0_d_2_279)">
<path d="M0 10.8519C0 5.38722 4.3367 0.93737 9.80095 0.870633C41.7539 0.480381 143.711 -0.510377 193.5 2.00002C210.008 2.83233 221.627 3.12584 229.801 3.11545C237.107 3.10617 261.493 1.00002 268.799 1.00002C273.328 1.00002 277 4.67173 277 9.20102V40.8446C277 46.4278 272.428 50.9295 266.846 50.8434L82.5 48L10.3634 50.6232C4.70182 50.829 0 46.2951 0 40.6298V10.8519Z" fill="white"/>
<path d="M82.5077 47.5001L82.4948 47.4999L82.4818 47.5003L10.3452 50.1235C4.96673 50.3191 0.5 46.0118 0.5 40.6298V10.8519C0.5 5.65707 4.62044 1.43394 9.80706 1.3706C41.7657 0.980275 143.704 -0.0100467 193.475 2.49938C209.987 3.33195 221.617 3.62585 229.802 3.61545C233.454 3.61081 241.326 3.0865 249.19 2.5627L249.333 2.55315C257.267 2.02471 265.167 1.50002 268.799 1.50002C273.052 1.50002 276.5 4.94788 276.5 9.20102V40.8446C276.5 46.1486 272.157 50.4253 266.853 50.3435L82.5077 47.5001Z" stroke="#1C1C1D"/>
</g>
<path d="M31.034 30.434V32H21.89V19.4H30.782V20.966H23.69V24.836H30.008V26.366H23.69V30.434H31.034ZM46.1306 22.37C47.3306 22.37 48.2786 22.718 48.9746 23.414C49.6826 24.11 50.0366 25.142 50.0366 26.51V32H48.3086V26.708C48.3086 25.784 48.0926 25.088 47.6606 24.62C47.2406 24.152 46.6346 23.918 45.8426 23.918C44.9666 23.918 44.2706 24.194 43.7546 24.746C43.2386 25.286 42.9806 26.066 42.9806 27.086V32H41.2526V26.708C41.2526 25.784 41.0366 25.088 40.6046 24.62C40.1846 24.152 39.5786 23.918 38.7866 23.918C37.9106 23.918 37.2146 24.194 36.6986 24.746C36.1826 25.286 35.9246 26.066 35.9246 27.086V32H34.1966V22.46H35.8526V23.882C36.2006 23.39 36.6566 23.018 37.2206 22.766C37.7846 22.502 38.4266 22.37 39.1466 22.37C39.8906 22.37 40.5506 22.52 41.1266 22.82C41.7026 23.12 42.1466 23.558 42.4586 24.134C42.8186 23.582 43.3166 23.15 43.9526 22.838C44.6006 22.526 45.3266 22.37 46.1306 22.37ZM57.1901 22.37C58.5101 22.37 59.5181 22.694 60.2141 23.342C60.9221 23.99 61.2761 24.956 61.2761 26.24V32H59.6381V30.74C59.3501 31.184 58.9361 31.526 58.3961 31.766C57.8681 31.994 57.2381 32.108 56.5061 32.108C55.4381 32.108 54.5801 31.85 53.9321 31.334C53.2961 30.818 52.9781 30.14 52.9781 29.3C52.9781 28.46 53.2841 27.788 53.8961 27.284C54.5081 26.768 55.4801 26.51 56.8121 26.51H59.5481V26.168C59.5481 25.424 59.3321 24.854 58.9001 24.458C58.4681 24.062 57.8321 23.864 56.9921 23.864C56.4281 23.864 55.8761 23.96 55.3361 24.152C54.7961 24.332 54.3401 24.578 53.9681 24.89L53.2481 23.594C53.7401 23.198 54.3281 22.898 55.0121 22.694C55.6961 22.478 56.4221 22.37 57.1901 22.37ZM56.7941 30.776C57.4541 30.776 58.0241 30.632 58.5041 30.344C58.9841 30.044 59.3321 29.624 59.5481 29.084V27.752H56.8841C55.4201 27.752 54.6881 28.244 54.6881 29.228C54.6881 29.708 54.8741 30.086 55.2461 30.362C55.6181 30.638 56.1341 30.776 56.7941 30.776ZM64.9739 22.46H66.7019V32H64.9739V22.46ZM65.8379 20.624C65.5019 20.624 65.2199 20.516 64.9919 20.3C64.7759 20.084 64.6679 19.82 64.6679 19.508C64.6679 19.196 64.7759 18.932 64.9919 18.716C65.2199 18.488 65.5019 18.374 65.8379 18.374C66.1739 18.374 66.4499 18.482 66.6659 18.698C66.8939 18.902 67.0079 19.16 67.0079 19.472C67.0079 19.796 66.8939 20.072 66.6659 20.3C66.4499 20.516 66.1739 20.624 65.8379 20.624ZM70.5013 18.644H72.2293V32H70.5013V18.644Z" fill="#1C1C1D"/>
<g clip-path="url(#clip0_2_279)">
<g filter="url(#filter1_d_2_279)">
<path d="M287 11.3246C287 5.31076 292.27 0.654964 298.259 1.19782C302.024 1.53908 306.12 1.84174 309.5 1.92593C356.675 3.10078 437.258 1.09037 465.695 0.298997C471.338 0.141976 476 4.67094 476 10.3155V38.1482C476 43.671 471.54 48.1439 466.017 48.1085C449.606 48.0036 416.322 47.6205 392 46.2222C361.306 44.4576 317.616 46.4215 297.671 47.5151C291.894 47.8318 287 43.243 287 37.4578V11.3246Z" fill="#FFBD12"/>
<path d="M287.5 11.3246C287.5 5.61509 292.507 1.17851 298.214 1.69578C301.983 2.03737 306.091 2.34118 309.488 2.42577C356.678 3.60101 437.275 1.59009 465.709 0.798804C471.07 0.649606 475.5 4.9529 475.5 10.3155V38.1482C475.5 43.3963 471.263 47.6421 466.02 47.6086C449.609 47.5036 416.337 47.1205 392.029 45.723C361.303 43.9566 317.587 45.9224 297.643 47.0158C292.15 47.317 287.5 42.9532 287.5 37.4578V11.3246Z" stroke="#1C1C1D"/>
</g>
<path d="M342.128 18.8H345.904V27.072H350.96V30H342.128V18.8ZM361.653 25.616C361.653 25.6693 361.637 25.952 361.605 26.464H355.525C355.653 26.7947 355.866 27.0507 356.165 27.232C356.463 27.4027 356.837 27.488 357.285 27.488C357.669 27.488 357.989 27.44 358.245 27.344C358.511 27.248 358.799 27.0827 359.109 26.848L360.997 28.752C360.143 29.6907 358.869 30.16 357.173 30.16C356.117 30.16 355.189 29.968 354.389 29.584C353.589 29.1893 352.97 28.6453 352.533 27.952C352.095 27.2587 351.877 26.48 351.877 25.616C351.877 24.7413 352.09 23.9627 352.517 23.28C352.954 22.5867 353.546 22.048 354.293 21.664C355.05 21.28 355.898 21.088 356.837 21.088C357.722 21.088 358.527 21.264 359.253 21.616C359.989 21.968 360.57 22.4853 360.997 23.168C361.434 23.8507 361.653 24.6667 361.653 25.616ZM356.869 23.552C356.495 23.552 356.186 23.6533 355.941 23.856C355.695 24.0587 355.535 24.3467 355.461 24.72H358.277C358.202 24.3573 358.042 24.0747 357.797 23.872C357.551 23.6587 357.242 23.552 356.869 23.552ZM369.692 29.696C369.148 30.0053 368.406 30.16 367.468 30.16C366.241 30.16 365.297 29.8667 364.636 29.28C363.974 28.6827 363.644 27.792 363.644 26.608V24.368H362.444V21.728H363.644V19.28H367.26V21.728H369.052V24.368H367.26V26.576C367.26 26.8427 367.329 27.0507 367.468 27.2C367.606 27.3493 367.788 27.424 368.012 27.424C368.321 27.424 368.593 27.344 368.828 27.184L369.692 29.696ZM372.685 17.968C373.304 17.968 373.81 18.1547 374.205 18.528C374.6 18.9013 374.797 19.3973 374.797 20.016C374.797 20.2933 374.76 20.5707 374.685 20.848C374.61 21.1253 374.44 21.5467 374.173 22.112L373.053 24.496H370.813L371.613 21.792C371.282 21.632 371.026 21.4027 370.845 21.104C370.664 20.7947 370.573 20.432 370.573 20.016C370.573 19.3973 370.77 18.9013 371.165 18.528C371.56 18.1547 372.066 17.968 372.685 17.968ZM379.474 30.16C378.727 30.16 377.991 30.08 377.266 29.92C376.541 29.76 375.954 29.552 375.506 29.296L376.498 26.912C376.903 27.1573 377.383 27.3493 377.938 27.488C378.493 27.6267 379.031 27.696 379.554 27.696C379.97 27.696 380.258 27.664 380.418 27.6C380.589 27.5253 380.674 27.4187 380.674 27.28C380.674 27.1413 380.567 27.0453 380.354 26.992C380.151 26.9387 379.815 26.8853 379.346 26.832C378.631 26.7467 378.023 26.64 377.522 26.512C377.021 26.3733 376.578 26.112 376.194 25.728C375.821 25.344 375.634 24.7947 375.634 24.08C375.634 23.5147 375.805 23.008 376.146 22.56C376.487 22.112 376.994 21.7547 377.666 21.488C378.349 21.2213 379.165 21.088 380.114 21.088C380.775 21.088 381.421 21.152 382.05 21.28C382.69 21.3973 383.234 21.5733 383.682 21.808L382.69 24.192C381.922 23.7653 381.079 23.552 380.162 23.552C379.373 23.552 378.978 23.6907 378.978 23.968C378.978 24.1067 379.085 24.208 379.298 24.272C379.511 24.3253 379.847 24.3787 380.306 24.432C381.021 24.5173 381.623 24.6293 382.114 24.768C382.615 24.9067 383.053 25.168 383.426 25.552C383.81 25.936 384.002 26.4853 384.002 27.2C384.002 27.744 383.831 28.24 383.49 28.688C383.149 29.136 382.637 29.4933 381.954 29.76C381.271 30.0267 380.445 30.16 379.474 30.16ZM398.314 24.096H401.594V28.832C400.932 29.2907 400.164 29.6427 399.29 29.888C398.415 30.1333 397.556 30.256 396.714 30.256C395.519 30.256 394.447 30.0107 393.498 29.52C392.548 29.0187 391.802 28.3253 391.258 27.44C390.724 26.544 390.458 25.5307 390.458 24.4C390.458 23.2693 390.724 22.2613 391.258 21.376C391.802 20.48 392.554 19.7867 393.514 19.296C394.484 18.7947 395.578 18.544 396.794 18.544C397.892 18.544 398.874 18.7307 399.738 19.104C400.612 19.4667 401.338 20 401.914 20.704L399.498 22.832C398.794 22.0107 397.956 21.6 396.986 21.6C396.154 21.6 395.492 21.8507 395.002 22.352C394.511 22.8533 394.266 23.536 394.266 24.4C394.266 25.2427 394.506 25.92 394.986 26.432C395.476 26.944 396.127 27.2 396.938 27.2C397.418 27.2 397.876 27.1093 398.314 26.928V24.096ZM409.525 30.256C408.319 30.256 407.237 30.0053 406.277 29.504C405.317 29.0027 404.565 28.3093 404.021 27.424C403.477 26.528 403.205 25.52 403.205 24.4C403.205 23.28 403.477 22.2773 404.021 21.392C404.565 20.496 405.317 19.7973 406.277 19.296C407.237 18.7947 408.319 18.544 409.525 18.544C410.73 18.544 411.813 18.7947 412.773 19.296C413.733 19.7973 414.485 20.496 415.029 21.392C415.573 22.2773 415.845 23.28 415.845 24.4C415.845 25.52 415.573 26.528 415.029 27.424C414.485 28.3093 413.733 29.0027 412.773 29.504C411.813 30.0053 410.73 30.256 409.525 30.256ZM409.525 27.2C409.994 27.2 410.415 27.088 410.789 26.864C411.173 26.6293 411.477 26.304 411.701 25.888C411.925 25.4613 412.037 24.9653 412.037 24.4C412.037 23.8347 411.925 23.344 411.701 22.928C411.477 22.5013 411.173 22.176 410.789 21.952C410.415 21.7173 409.994 21.6 409.525 21.6C409.055 21.6 408.629 21.7173 408.245 21.952C407.871 22.176 407.573 22.5013 407.349 22.928C407.125 23.344 407.013 23.8347 407.013 24.4C407.013 24.9653 407.125 25.4613 407.349 25.888C407.573 26.304 407.871 26.6293 408.245 26.864C408.629 27.088 409.055 27.2 409.525 27.2ZM417.105 18.8H421.425L420.705 25.712H417.825L417.105 18.8ZM419.265 30.16C418.646 30.16 418.14 29.9733 417.745 29.6C417.35 29.2267 417.153 28.7733 417.153 28.24C417.153 27.696 417.35 27.248 417.745 26.896C418.14 26.5333 418.646 26.352 419.265 26.352C419.884 26.352 420.39 26.5333 420.785 26.896C421.18 27.248 421.377 27.696 421.377 28.24C421.377 28.7733 421.18 29.2267 420.785 29.6C420.39 29.9733 419.884 30.16 419.265 30.16Z" fill="white"/>
</g>
<defs>
<filter id="filter0_d_2_279" x="0" y="0.346954" width="277" height="52.4977" filterUnits="userSpaceOnUse" color-interpolation-filters="sRGB">
<feFlood flood-opacity="0" result="BackgroundImageFix"/>
<feColorMatrix in="SourceAlpha" type="matrix" values="0 0 0 0 0 0 0 0 0 0 0 0 0 0 0 0 0 0 127 0" result="hardAlpha"/>
<feOffset dy="2"/>
<feColorMatrix type="matrix" values="0 0 0 0 0.12549 0 0 0 0 0.12549 0 0 0 0 0.12549 0 0 0 1 0"/>
<feBlend mode="normal" in2="BackgroundImageFix" result="effect1_dropShadow_2_279"/>
<feBlend mode="normal" in="SourceGraphic" in2="effect1_dropShadow_2_279" result="shape"/>
</filter>
<filter id="filter1_d_2_279" x="287" y="0.295044" width="189" height="51.8137" filterUnits="userSpaceOnUse" color-interpolation-filters="sRGB">
<feFlood flood-opacity="0" result="BackgroundImageFix"/>
<feColorMatrix in="SourceAlpha" type="matrix" values="0 0 0 0 0 0 0 0 0 0 0 0 0 0 0 0 0 0 127 0" result="hardAlpha"/>
<feOffset dy="4"/>
<feColorMatrix type="matrix" values="0 0 0 0 0.125 0 0 0 0 0.125 0 0 0 0 0.125 0 0 0 1 0"/>
<feBlend mode="normal" in2="BackgroundImageFix" result="effect1_dropShadow_2_279"/>
<feBlend mode="normal" in="SourceGraphic" in2="effect1_dropShadow_2_279" result="shape"/>
</filter>
<clipPath id="clip0_2_279">
<rect x="287" width="189" height="52" rx="10" fill="white"/>
</clipPath>
</defs>
</svg>
