<svg width="403" height="54" viewBox="0 0 403 54" fill="none" xmlns="http://www.w3.org/2000/svg">
<g clip-path="url(#clip0_2_427)">
<g filter="url(#filter0_d_2_427)">
<path d="M0 10.6258C0 4.86455 4.84841 0.289829 10.6017 0.592708C20.8103 1.13013 36.3689 1.85922 47.9762 2C156.217 3.31283 346.942 0.795595 392.853 0.146966C398.434 0.0681112 403 4.57041 403 10.1524V40C403 45.5228 398.551 49.9984 393.028 49.9877C364.733 49.9328 282.223 49.6333 223.889 48C150.958 45.958 43.6153 48.724 10.2659 49.6895C4.61799 49.8531 0 45.3196 0 39.6694V10.6258Z" fill="#FA6648"/>
<path d="M0.5 10.6258C0.5 5.15268 5.10653 0.80411 10.5754 1.09202C20.7844 1.62946 36.3518 2.35905 47.9701 2.49996C156.218 3.81289 346.95 1.29552 392.86 0.646916C398.162 0.572002 402.5 4.84929 402.5 10.1524V40C402.5 45.2486 398.273 49.4978 393.029 49.4877C364.734 49.4328 282.23 49.1333 223.903 47.5002C150.955 45.4577 43.5993 48.2243 10.2514 49.1897C4.88832 49.345 0.5 45.041 0.5 39.6694V10.6258Z" stroke="#1C1C1D"/>
</g>
<path d="M175.363 31.256C174.435 31.256 173.528 31.1547 172.643 30.952C171.768 30.7387 171.048 30.456 170.483 30.104L171.699 27.352C172.232 27.6613 172.83 27.912 173.491 28.104C174.152 28.2853 174.787 28.376 175.395 28.376C175.918 28.376 176.291 28.328 176.515 28.232C176.739 28.1253 176.851 27.9707 176.851 27.768C176.851 27.5333 176.702 27.3573 176.403 27.24C176.115 27.1227 175.635 26.9947 174.963 26.856C174.099 26.6747 173.379 26.4827 172.803 26.28C172.227 26.0667 171.726 25.7253 171.299 25.256C170.872 24.776 170.659 24.1307 170.659 23.32C170.659 22.616 170.856 21.976 171.251 21.4C171.646 20.824 172.232 20.3707 173.011 20.04C173.8 19.7093 174.755 19.544 175.875 19.544C176.643 19.544 177.395 19.6293 178.131 19.8C178.878 19.96 179.534 20.2 180.099 20.52L178.963 23.256C177.864 22.7013 176.824 22.424 175.843 22.424C174.872 22.424 174.387 22.6587 174.387 23.128C174.387 23.352 174.531 23.5227 174.819 23.64C175.107 23.7467 175.582 23.864 176.243 23.992C177.096 24.152 177.816 24.3387 178.403 24.552C178.99 24.7547 179.496 25.0907 179.923 25.56C180.36 26.0293 180.579 26.6693 180.579 27.48C180.579 28.184 180.382 28.824 179.987 29.4C179.592 29.9653 179 30.4187 178.211 30.76C177.432 31.0907 176.483 31.256 175.363 31.256ZM182.041 22.248H185.657V31H182.041V22.248ZM183.849 21.544C183.198 21.544 182.67 21.3733 182.265 21.032C181.87 20.68 181.673 20.2373 181.673 19.704C181.673 19.1707 181.87 18.7333 182.265 18.392C182.67 18.04 183.198 17.864 183.849 17.864C184.51 17.864 185.038 18.0293 185.433 18.36C185.827 18.6907 186.025 19.1173 186.025 19.64C186.025 20.1947 185.827 20.6533 185.433 21.016C185.038 21.368 184.51 21.544 183.849 21.544ZM193.789 22.088C194.867 22.088 195.731 22.4133 196.381 23.064C197.043 23.7147 197.373 24.696 197.373 26.008V31H193.757V26.632C193.757 25.6293 193.4 25.128 192.685 25.128C192.28 25.128 191.949 25.272 191.693 25.56C191.448 25.8373 191.325 26.28 191.325 26.888V31H187.709V22.248H191.149V23.112C191.491 22.7707 191.885 22.5147 192.333 22.344C192.781 22.1733 193.267 22.088 193.789 22.088ZM209.326 22.248V29.256C209.326 30.92 208.862 32.168 207.934 33C207.017 33.8427 205.705 34.264 203.998 34.264C203.123 34.264 202.307 34.168 201.55 33.976C200.793 33.7947 200.147 33.528 199.614 33.176L200.83 30.712C201.171 30.968 201.603 31.176 202.126 31.336C202.649 31.496 203.15 31.576 203.63 31.576C204.355 31.576 204.883 31.4213 205.214 31.112C205.545 30.8027 205.71 30.3493 205.71 29.752V29.592C205.166 30.2107 204.361 30.52 203.294 30.52C202.547 30.52 201.849 30.3493 201.198 30.008C200.558 29.656 200.046 29.16 199.662 28.52C199.278 27.8693 199.086 27.128 199.086 26.296C199.086 25.464 199.278 24.728 199.662 24.088C200.046 23.448 200.558 22.9573 201.198 22.616C201.849 22.264 202.547 22.088 203.294 22.088C204.489 22.088 205.353 22.472 205.886 23.24V22.248H209.326ZM204.254 27.704C204.681 27.704 205.033 27.576 205.31 27.32C205.598 27.0533 205.742 26.712 205.742 26.296C205.742 25.88 205.598 25.544 205.31 25.288C205.033 25.032 204.681 24.904 204.254 24.904C203.817 24.904 203.454 25.032 203.166 25.288C202.889 25.544 202.75 25.88 202.75 26.296C202.75 26.712 202.894 27.0533 203.182 27.32C203.47 27.576 203.827 27.704 204.254 27.704ZM216.622 22.248H220.238V31H216.622V22.248ZM218.43 21.544C217.779 21.544 217.251 21.3733 216.846 21.032C216.451 20.68 216.254 20.2373 216.254 19.704C216.254 19.1707 216.451 18.7333 216.846 18.392C217.251 18.04 217.779 17.864 218.43 17.864C219.091 17.864 219.619 18.0293 220.014 18.36C220.409 18.6907 220.606 19.1173 220.606 19.64C220.606 20.1947 220.409 20.6533 220.014 21.016C219.619 21.368 219.091 21.544 218.43 21.544ZM228.371 22.088C229.448 22.088 230.312 22.4133 230.963 23.064C231.624 23.7147 231.955 24.696 231.955 26.008V31H228.339V26.632C228.339 25.6293 227.981 25.128 227.267 25.128C226.861 25.128 226.531 25.272 226.275 25.56C226.029 25.8373 225.907 26.28 225.907 26.888V31H222.291V22.248H225.731V23.112C226.072 22.7707 226.467 22.5147 226.915 22.344C227.363 22.1733 227.848 22.088 228.371 22.088Z" fill="white"/>
</g>
<defs>
<filter id="filter0_d_2_427" x="0" y="0.145996" width="403" height="53.8418" filterUnits="userSpaceOnUse" color-interpolation-filters="sRGB">
<feFlood flood-opacity="0" result="BackgroundImageFix"/>
<feColorMatrix in="SourceAlpha" type="matrix" values="0 0 0 0 0 0 0 0 0 0 0 0 0 0 0 0 0 0 127 0" result="hardAlpha"/>
<feOffset dy="4"/>
<feColorMatrix type="matrix" values="0 0 0 0 0.125 0 0 0 0 0.125 0 0 0 0 0.125 0 0 0 1 0"/>
<feBlend mode="normal" in2="BackgroundImageFix" result="effect1_dropShadow_2_427"/>
<feBlend mode="normal" in="SourceGraphic" in2="effect1_dropShadow_2_427" result="shape"/>
</filter>
<clipPath id="clip0_2_427">
<rect width="403" height="54" rx="10" fill="white"/>
</clipPath>
</defs>
</svg>
