<svg width="217" height="56" viewBox="0 0 217 56" fill="none" xmlns="http://www.w3.org/2000/svg">
<g clip-path="url(#clip0_2_369)">
<g filter="url(#filter0_d_2_369)">
<path d="M0 10.1567C0 4.57306 4.53281 0.0694799 10.1159 0.149592C36.5711 0.529199 109.464 1.5 163.037 1.5C176.631 1.5 195.127 0.876479 206.554 0.433446C212.251 0.212543 217 4.76488 217 10.4666V40.2668C217 45.6844 212.724 50.1119 207.308 50.2311C182.03 50.7871 112.664 52.0107 63.7222 50C46.8383 49.3064 23.4919 49.555 10.2516 49.7859C4.62676 49.884 0 45.3595 0 39.7338V10.1567Z" fill="white"/>
<path d="M0.5 10.1567C0.5 4.84969 4.80687 0.573464 10.1087 0.649541C36.5638 1.02915 109.46 2 163.037 2C176.642 2 195.147 1.37611 206.573 0.933071C211.988 0.72312 216.5 5.04966 216.5 10.4666V40.2668C216.5 45.4162 212.438 49.6181 207.297 49.7312C182.018 50.2872 112.667 51.5104 63.7427 49.5004C46.8426 48.8061 23.4831 49.0551 10.2429 49.286C4.89609 49.3792 0.5 45.0785 0.5 39.7338V10.1567Z" stroke="#1C1C1D"/>
</g>
<path d="M65.6091 25.096H68.8891V29.832C68.2278 30.2907 67.4598 30.6427 66.5851 30.888C65.7104 31.1333 64.8518 31.256 64.0091 31.256C62.8144 31.256 61.7424 31.0107 60.7931 30.52C59.8438 30.0187 59.0971 29.3253 58.5531 28.44C58.0198 27.544 57.7531 26.5307 57.7531 25.4C57.7531 24.2693 58.0198 23.2613 58.5531 22.376C59.0971 21.48 59.8491 20.7867 60.8091 20.296C61.7798 19.7947 62.8731 19.544 64.0891 19.544C65.1878 19.544 66.1691 19.7307 67.0331 20.104C67.9078 20.4667 68.6331 21 69.2091 21.704L66.7931 23.832C66.0891 23.0107 65.2518 22.6 64.2811 22.6C63.4491 22.6 62.7878 22.8507 62.2971 23.352C61.8064 23.8533 61.5611 24.536 61.5611 25.4C61.5611 26.2427 61.8011 26.92 62.2811 27.432C62.7718 27.944 63.4224 28.2 64.2331 28.2C64.7131 28.2 65.1718 28.1093 65.6091 27.928V25.096ZM80.148 26.616C80.148 26.6693 80.132 26.952 80.1 27.464H74.02C74.148 27.7947 74.3613 28.0507 74.66 28.232C74.9586 28.4027 75.332 28.488 75.78 28.488C76.164 28.488 76.484 28.44 76.74 28.344C77.0066 28.248 77.2946 28.0827 77.604 27.848L79.492 29.752C78.6386 30.6907 77.364 31.16 75.668 31.16C74.612 31.16 73.684 30.968 72.884 30.584C72.084 30.1893 71.4653 29.6453 71.028 28.952C70.5906 28.2587 70.372 27.48 70.372 26.616C70.372 25.7413 70.5853 24.9627 71.012 24.28C71.4493 23.5867 72.0413 23.048 72.788 22.664C73.5453 22.28 74.3933 22.088 75.332 22.088C76.2173 22.088 77.0226 22.264 77.748 22.616C78.484 22.968 79.0653 23.4853 79.492 24.168C79.9293 24.8507 80.148 25.6667 80.148 26.616ZM75.364 24.552C74.9906 24.552 74.6813 24.6533 74.436 24.856C74.1906 25.0587 74.0306 25.3467 73.956 25.72H76.772C76.6973 25.3573 76.5373 25.0747 76.292 24.872C76.0466 24.6587 75.7373 24.552 75.364 24.552ZM88.1871 30.696C87.6431 31.0053 86.9018 31.16 85.9631 31.16C84.7364 31.16 83.7924 30.8667 83.1311 30.28C82.4698 29.6827 82.1391 28.792 82.1391 27.608V25.368H80.9391V22.728H82.1391V20.28H85.7551V22.728H87.5471V25.368H85.7551V27.576C85.7551 27.8427 85.8244 28.0507 85.9631 28.2C86.1018 28.3493 86.2831 28.424 86.5071 28.424C86.8164 28.424 87.0884 28.344 87.3231 28.184L88.1871 30.696ZM98.2193 31.16C97.4727 31.16 96.7367 31.08 96.0113 30.92C95.286 30.76 94.6993 30.552 94.2513 30.296L95.2433 27.912C95.6487 28.1573 96.1287 28.3493 96.6833 28.488C97.238 28.6267 97.7767 28.696 98.2993 28.696C98.7153 28.696 99.0033 28.664 99.1633 28.6C99.334 28.5253 99.4193 28.4187 99.4193 28.28C99.4193 28.1413 99.3127 28.0453 99.0993 27.992C98.8967 27.9387 98.5607 27.8853 98.0913 27.832C97.3767 27.7467 96.7687 27.64 96.2673 27.512C95.766 27.3733 95.3233 27.112 94.9393 26.728C94.566 26.344 94.3793 25.7947 94.3793 25.08C94.3793 24.5147 94.55 24.008 94.8913 23.56C95.2327 23.112 95.7393 22.7547 96.4113 22.488C97.094 22.2213 97.91 22.088 98.8593 22.088C99.5207 22.088 100.166 22.152 100.795 22.28C101.435 22.3973 101.979 22.5733 102.427 22.808L101.435 25.192C100.667 24.7653 99.8247 24.552 98.9073 24.552C98.118 24.552 97.7233 24.6907 97.7233 24.968C97.7233 25.1067 97.83 25.208 98.0433 25.272C98.2567 25.3253 98.5927 25.3787 99.0513 25.432C99.766 25.5173 100.369 25.6293 100.859 25.768C101.361 25.9067 101.798 26.168 102.171 26.552C102.555 26.936 102.747 27.4853 102.747 28.2C102.747 28.744 102.577 29.24 102.235 29.688C101.894 30.136 101.382 30.4933 100.699 30.76C100.017 31.0267 99.19 31.16 98.2193 31.16ZM110.74 30.696C110.196 31.0053 109.455 31.16 108.516 31.16C107.29 31.16 106.346 30.8667 105.684 30.28C105.023 29.6827 104.692 28.792 104.692 27.608V25.368H103.492V22.728H104.692V20.28H108.308V22.728H110.1V25.368H108.308V27.576C108.308 27.8427 108.378 28.0507 108.516 28.2C108.655 28.3493 108.836 28.424 109.06 28.424C109.37 28.424 109.642 28.344 109.876 28.184L110.74 30.696ZM116.022 22.088C117.558 22.088 118.731 22.4347 119.542 23.128C120.352 23.8107 120.758 24.8667 120.758 26.296V31H117.398V29.848C116.982 30.7227 116.155 31.16 114.918 31.16C114.224 31.16 113.632 31.0427 113.142 30.808C112.662 30.5627 112.294 30.2373 112.038 29.832C111.792 29.416 111.67 28.952 111.67 28.44C111.67 27.576 112 26.92 112.662 26.472C113.323 26.024 114.326 25.8 115.67 25.8H117.126C117.008 25.1173 116.459 24.776 115.478 24.776C115.083 24.776 114.683 24.84 114.278 24.968C113.872 25.0853 113.526 25.2507 113.238 25.464L112.086 23.08C112.587 22.7707 113.19 22.5307 113.894 22.36C114.608 22.1787 115.318 22.088 116.022 22.088ZM116.006 28.984C116.262 28.984 116.491 28.9147 116.694 28.776C116.896 28.6373 117.046 28.4293 117.142 28.152V27.544H116.246C115.51 27.544 115.142 27.7893 115.142 28.28C115.142 28.4827 115.216 28.6533 115.366 28.792C115.526 28.92 115.739 28.984 116.006 28.984ZM126.21 23.192C126.85 22.456 127.794 22.088 129.042 22.088V25.288C128.754 25.2453 128.488 25.224 128.242 25.224C127.005 25.224 126.386 25.8533 126.386 27.112V31H122.77V22.248H126.21V23.192ZM137.2 30.696C136.656 31.0053 135.914 31.16 134.976 31.16C133.749 31.16 132.805 30.8667 132.144 30.28C131.482 29.6827 131.152 28.792 131.152 27.608V25.368H129.952V22.728H131.152V20.28H134.768V22.728H136.56V25.368H134.768V27.576C134.768 27.8427 134.837 28.0507 134.976 28.2C135.114 28.3493 135.296 28.424 135.52 28.424C135.829 28.424 136.101 28.344 136.336 28.184L137.2 30.696ZM147.639 26.616C147.639 26.6693 147.623 26.952 147.591 27.464H141.511C141.639 27.7947 141.852 28.0507 142.151 28.232C142.449 28.4027 142.823 28.488 143.271 28.488C143.655 28.488 143.975 28.44 144.231 28.344C144.497 28.248 144.785 28.0827 145.095 27.848L146.983 29.752C146.129 30.6907 144.855 31.16 143.159 31.16C142.103 31.16 141.175 30.968 140.375 30.584C139.575 30.1893 138.956 29.6453 138.519 28.952C138.081 28.2587 137.863 27.48 137.863 26.616C137.863 25.7413 138.076 24.9627 138.503 24.28C138.94 23.5867 139.532 23.048 140.279 22.664C141.036 22.28 141.884 22.088 142.823 22.088C143.708 22.088 144.513 22.264 145.239 22.616C145.975 22.968 146.556 23.4853 146.983 24.168C147.42 24.8507 147.639 25.6667 147.639 26.616ZM142.855 24.552C142.481 24.552 142.172 24.6533 141.927 24.856C141.681 25.0587 141.521 25.3467 141.447 25.72H144.263C144.188 25.3573 144.028 25.0747 143.783 24.872C143.537 24.6587 143.228 24.552 142.855 24.552ZM158.91 19.128V31H155.47V30.28C154.947 30.8667 154.147 31.16 153.07 31.16C152.302 31.16 151.592 30.9787 150.942 30.616C150.302 30.2427 149.79 29.7093 149.406 29.016C149.032 28.3227 148.846 27.5227 148.846 26.616C148.846 25.7093 149.032 24.9147 149.406 24.232C149.79 23.5387 150.302 23.0107 150.942 22.648C151.592 22.2747 152.302 22.088 153.07 22.088C154.04 22.088 154.782 22.3387 155.294 22.84V19.128H158.91ZM153.934 28.344C154.35 28.344 154.691 28.1947 154.958 27.896C155.224 27.5867 155.358 27.16 155.358 26.616C155.358 26.072 155.224 25.6507 154.958 25.352C154.691 25.0533 154.35 24.904 153.934 24.904C153.518 24.904 153.176 25.0533 152.91 25.352C152.643 25.6507 152.51 26.072 152.51 26.616C152.51 27.16 152.643 27.5867 152.91 27.896C153.176 28.1947 153.518 28.344 153.934 28.344Z" fill="#1C1C1D"/>
</g>
<defs>
<filter id="filter0_d_2_369" x="0" y="0.14856" width="217" height="54.9625" filterUnits="userSpaceOnUse" color-interpolation-filters="sRGB">
<feFlood flood-opacity="0" result="BackgroundImageFix"/>
<feColorMatrix in="SourceAlpha" type="matrix" values="0 0 0 0 0 0 0 0 0 0 0 0 0 0 0 0 0 0 127 0" result="hardAlpha"/>
<feOffset dy="4"/>
<feColorMatrix type="matrix" values="0 0 0 0 0.125 0 0 0 0 0.125 0 0 0 0 0.125 0 0 0 1 0"/>
<feBlend mode="normal" in2="BackgroundImageFix" result="effect1_dropShadow_2_369"/>
<feBlend mode="normal" in="SourceGraphic" in2="effect1_dropShadow_2_369" result="shape"/>
</filter>
<clipPath id="clip0_2_369">
<rect width="217" height="56" rx="10" fill="white"/>
</clipPath>
</defs>
</svg>
